<svg width="26" height="24" viewBox="0 0 26 24" fill="none" xmlns="http://www.w3.org/2000/svg">
<path d="M11.693 0.936975C11.9918 0.014513 13.2968 0.0145164 13.5956 0.936978L15.8382 7.86035C15.9718 8.27281 16.356 8.55219 16.7896 8.55219H24.0533C25.0213 8.55219 25.4246 9.79023 24.6423 10.3603L18.7605 14.647C18.4111 14.9016 18.2649 15.352 18.3981 15.7633L20.6435 22.6953C20.9421 23.6171 19.8863 24.3823 19.1032 23.8116L13.2333 19.5336C12.8823 19.2778 12.4063 19.2778 12.0553 19.5336L6.1854 23.8116C5.40229 24.3823 4.34649 23.6171 4.64509 22.6953L6.89049 15.7633C7.02372 15.352 6.87753 14.9016 6.52813 14.647L0.646312 10.3603C-0.135959 9.79023 0.267314 8.55219 1.23529 8.55219H8.49904C8.9326 8.55219 9.31677 8.27281 9.45038 7.86035L11.693 0.936975Z" fill="#2CD2AB"/>
</svg>
