<svg width="82" height="211" viewBox="0 0 82 211" fill="none" xmlns="http://www.w3.org/2000/svg">
<g clip-path="url(#clip0_0_568)">
<path d="M41 210.142C18.8258 210.142 0.854126 192.096 0.854126 169.829V41.1707C0.854126 18.9042 18.8258 0.857666 41 0.857666C63.1741 0.857666 81.1458 18.9042 81.1458 41.1707V169.829C81.1458 192.096 63.1741 210.142 41 210.142Z" stroke="white" stroke-opacity="0.3" stroke-width="3" stroke-miterlimit="10"/>
<path d="M41 175.833C37.703 175.833 35.0209 173.14 35.0209 169.829V41.1708C35.0209 37.86 37.703 35.1667 41 35.1667C44.2971 35.1667 46.9792 37.86 46.9792 41.1708V169.829C46.9792 173.14 44.2971 175.833 41 175.833Z" fill="#FF5156"/>
</g>
<defs>
<clipPath id="clip0_0_568">
<rect width="82" height="211" fill="white"/>
</clipPath>
</defs>
</svg>
