<svg width="485" height="244" viewBox="0 0 485 244" fill="none" xmlns="http://www.w3.org/2000/svg">
<g clip-path="url(#clip0_0_558)">
<path d="M392.901 199.944H0.844948C0.371777 199.944 0 199.572 0 199.097V16.0972C0 15.6228 0.371777 15.25 0.844948 15.25H392.901C443.682 15.25 485 56.6792 485 107.597C485 158.515 443.682 199.944 392.901 199.944ZM1.6899 198.25H392.901C442.753 198.25 483.31 157.583 483.31 107.597C483.31 57.6111 442.753 16.9444 392.901 16.9444H1.6899V198.25Z" fill="white" fill-opacity="0.5"/>
<path d="M69.2857 244C94.4849 244 114.913 223.517 114.913 198.25C114.913 172.983 94.4849 152.5 69.2857 152.5C44.0865 152.5 23.6585 172.983 23.6585 198.25C23.6585 223.517 44.0865 244 69.2857 244Z" fill="#1A52B9"/>
<path d="M250.105 30.5C258.504 30.5 265.314 23.6723 265.314 15.25C265.314 6.82766 258.504 0 250.105 0C241.705 0 234.896 6.82766 234.896 15.25C234.896 23.6723 241.705 30.5 250.105 30.5Z" fill="#FF5156"/>
<path d="M249.31 20.7569V132.963" stroke="white" stroke-miterlimit="10"/>
</g>
<defs>
<clipPath id="clip0_0_558">
<rect width="485" height="244" fill="white"/>
</clipPath>
</defs>
</svg>
